<svg width="1920" height="354" viewBox="0 0 1920 354" fill="none" xmlns="http://www.w3.org/2000/svg">
<path d="M1391.41 201.331C1391.41 201.331 1396.83 159.064 1371.66 151.967C1360.48 151.474 1357.68 151.474 1354.89 145.237C1352.09 139 1346.5 136.065 1345.1 133.497C1343.7 130.93 1338.11 130.929 1329.03 133.497C1319.94 136.065 1325.53 139.001 1312.25 133.497C1298.97 127.994 1298.27 130.562 1291.98 124.876C1285.69 119.189 1282.19 110.155 1275.9 112.104C1269.61 114.053 1261.92 113.319 1257.73 115.52C1253.53 117.722 1243.05 125.517 1240.25 127.856C1237.46 130.195 1217.89 127.719 1215.79 127.856C1213.69 127.994 1194.12 124.784 1187.13 127.856C1180.14 130.929 1167.91 141.935 1164.76 145.237C1161.62 148.539 1154.28 162.847 1147.99 162.664C1141.7 162.48 1133.57 159.086 1124.92 164.865C1116.27 170.644 1106.75 178.348 1106.75 178.348L1096.96 201.331H1391.41Z" fill="#293C2F"/>
<path d="M1164.2 41.4092V53.1712H1158.56V35.9133L1141.8 41.4092V53.1712H1127.13V39.5164H1123.56V24.3398H1112.86V32.4211H1108.63V39.5164H1105.28V201.331H1119.4H1127.13H1180.96V53.1712V35.9133L1164.2 41.4092Z" fill="#293C2F"/>
<path d="M807.545 40.1392V33.1003H800.637V27.4688H765.616V33.1003H758.708V40.1392H755.71V201.331H810.543V40.1392H807.545Z" fill="#2D5239"/>
<path d="M845.565 80.2295V72.0859H817.398V80.2295V201.331H854.24V80.2295H845.565Z" fill="#2D5239"/>
<path d="M995.177 29.0739V17.6318H973.92H952.663V29.0739H946.116V201.331H973.92H1001.72V29.0739H995.177Z" fill="#2D5239"/>
<path d="M681.915 102.406V89.6064H654.719V102.406H647.754V201.331H688.88V102.406H681.915Z" fill="#2D5239"/>
<path d="M1096.42 38.8184V52.4562H1089.56V43.7513H1076.28V52.4562H1069.43V38.8184H1060.86V201.331H1099.42V38.8184H1096.42Z" fill="#2D5239"/>
<path d="M605.421 201.331V162.712H573.935V152.348H559.798V146.919H552.729V162.712H540.092V201.331H605.421Z" fill="#2D5239"/>
<path d="M769.96 152.529H736.117V161.955H729.691V128.812H703.13V201.331H769.96V152.529Z" fill="#2D5239"/>
<path d="M854.24 201.331H901.363V161.232H888.083V146.919H869.233V155.31H854.24V201.331Z" fill="#2D5239"/>
<path d="M954.483 154.94H976.974V171.967H981.793V161.232H987.898V201.331H954.483V154.94Z" fill="#2D5239"/>
<path d="M908.009 43.2655H897.163V51.6275H879.308V21.9363C879.308 21.3281 878.971 20.8359 878.554 20.8359C878.137 20.8359 877.8 21.3281 877.8 21.9363V51.6275V201.331H935.994V43.2655C935.994 43.2655 935.994 41.6662 935.994 34.3483C912.479 34.3483 908.009 43.2655 908.009 43.2655Z" fill="#293C2F"/>
<path d="M1261.02 75.5207H1257.94V67.7012H1252.87V61.8641C1252.87 57.3023 1247.16 53.6045 1240.1 53.6045C1233.04 53.6045 1227.32 57.3023 1227.32 61.8641V67.7012H1222.26V75.5207H1219.17V82.0188H1217.63V201.332H1262.57V82.018H1261.02V75.5207Z" fill="#2D5239"/>
<path d="M609.953 93.5608V82.4053H627.202V93.5608H631.734V109.057H638.979V201.331H631.734H624.488H605.421V93.5608H609.953Z" fill="#2D5239"/>
<path d="M698.909 67.7756V53.4153V68.7301V67.6792V61.4608V34.7338C698.909 34.0932 699.43 33.5703 700.068 33.5703C700.706 33.5703 701.225 34.0923 701.225 34.7338V61.4608H711.646V67.6792H720.041V53.4153H729.884V67.7756H735.963V201.331H694.857V67.7756H698.909Z" fill="#293C2F"/>
<path d="M592.014 113.685H570.185V201.331H592.014V113.685Z" fill="#49805B"/>
<path d="M631.087 167.755V173.516H625.125V158.114H615.403V167.638H606.69V154.94H592.014V201.331H605.772H606.69H615.403H616.412H623.933H625.125H631.087H632.554H646.68V167.755H631.087Z" fill="#49805B"/>
<path d="M715.286 165.415V75.1631H667.592V201.331H710.883H715.286H724.091V165.415H715.286Z" fill="#49805B"/>
<path d="M753.076 162.48V89.8379H732.164V170.185H726.66V201.331H732.164H739.868H747.572H753.076H760.78V162.48H753.076Z" fill="#49805B"/>
<path d="M654.384 133.497V165.415H646.68V201.331H654.384H659.887H667.592V133.497H654.384Z" fill="#49805B"/>
<path d="M766.52 133.497V165.415H760.504V201.331H766.52H770.816H776.831V133.497H766.52Z" fill="#49805B"/>
<path d="M570.162 173.163V165.638H564.866V173.163H554.96V161.876H544.32V173.163H539V201.331H570.185V173.163H570.162Z" fill="#49805B"/>
<path d="M819.757 163.215V102.129H808.934V89.8379H787.654V102.129H776.831V201.331H780.775H819.757H823.7V163.215H819.757Z" fill="#49805B"/>
<path d="M1083.07 62.6887V34.8971H1085.83V17.7459H1090.05V0.59375H1104.35V17.7459H1108.57V34.8971H1111.33V62.6887H1114.26V201.331H1080.14V62.6887H1083.07Z" fill="#49805B"/>
<path d="M1141.03 116.712V112.103H1122.84V116.712H1118.51V201.331H1153.91V116.712H1141.03Z" fill="#49805B"/>
<path d="M938.086 63.8809V157.161H930.102V171.653H925.803V157.161H918.434V64.4311H882.203V201.331H889.572H910.451H918.434H925.803H930.102H938.086H946.683H966.334H974.317V63.8809H938.086Z" fill="#49805B"/>
<path d="M1012.9 27.4688H979.742V201.332H1012.9V27.4688Z" fill="#49805B"/>
<path d="M866.821 86.9032V77.2268H864.619V66.3118H862.005V55.3968H859.391V49.7568H846V55.3968H843.385V66.3118H840.772V77.2268H838.57V86.9032H835.818V201.331H869.572V86.9032H866.821Z" fill="#49805B"/>
<path d="M878.575 164.865H868.303V179.999H861.974V175.321H851.243V170.369H846.29V172.432H838.035V177.798H832.256V170.644H822.351V177.247H817.398V201.331H878.575V164.865Z" fill="#49805B"/>
<path d="M1046.55 201.331H1075.17V98.6426H1046.55V201.331Z" fill="#49805B"/>
<path d="M1016.34 201.331H1043.98V57.9189H1016.34V201.331Z" fill="#49805B"/>
<path d="M1168.17 111.026V103.413H1193.76V111.026H1197.06V201.331H1164.87V111.026H1168.17Z" fill="#49805B"/>
<path d="M1197.06 149.588H1211.1V164.946H1214.36V157.267H1223.72V155.054H1228.19V157.267H1230.64V167.028H1237.35V158.307H1243.86V167.028H1250.78V149.588H1257.7V167.028H1264.21V169.63H1273.27V164.164H1279.88V155.054H1295.55V163.904H1304.4V155.445H1313.56V164.035H1320.78V158.047H1326.99H1331.16V149.588H1338.69V169.63H1342.55V163.904H1346.83V158.438H1360.05V169.63H1362.49V158.178H1365.55V155.054H1374.3V158.178L1379.18 164.424H1383.66V154.534H1388.95V168.068H1392V201.331H1197.06V149.588Z" fill="#49805B"/>
<path d="M831.403 157.059L823.864 169.512H823.7V176.781H805.624V172.419H764.907V169.512L758.571 160.303H755.139V153.816H739.825V160.303H736.393L730.056 169.512H704.182L697.845 160.303H694.413V153.816H679.1V160.303H675.667L669.331 169.512V178.35H647.989V201.331H669.331H764.887H764.907H823.7H839.106V169.512H838.942L831.403 157.059Z" fill="#335E41"/>
<path d="M1051.68 185.722V181.452H1071.99V160.281H1141.05V173.707H1150.19V180.419H1156.89V162.605H1167.85V201.331H1157.9H1156.89H1150.19H1148.15H1141.05H1140.44H1071.99H1058.59H1051.68H1038.28V185.722H1051.68Z" fill="#335E41"/>
<path d="M1200.97 159.473C1200.97 162.452 1200.97 163.104 1200.97 163.104V179.744H1213.24L1229.64 154.721L1246.04 179.744V201.331H1178.26V180.085V179.744V163.104H1178.25C1178.25 163.104 1181.88 159.473 1200.97 159.473Z" fill="#335E41"/>
<path d="M1043.98 166.756H1032.32V177.018H1029.62V171.887H1021.85V170.409H1018.14V171.887H1016.11V178.41H1010.54V172.583H1005.14V178.41H999.396V166.756H993.654V178.41H988.251V180.149H980.737V176.497H975.248V170.409H962.245V176.323H954.9V170.67H947.301V176.41H941.306V172.409H936.155H932.694V166.756H926.446V180.149H923.238V176.323H919.691V172.67H908.715V180.149H906.688V172.496H904.155V170.409H896.894V172.496L892.842 176.671H889.126V170.061H884.736V179.105H882.203V201.331H1043.98V166.756Z" fill="#335E41"/>
<path d="M1392 184.873H539V199.415H1392V184.873Z" fill="#1D3F28"/>
<path d="M1392 186.79H539V201.332H1392V186.79Z" fill="#49805B"/>
</svg>
