<!-- Hero Image - Alien: Earth 2025 -->
<svg width="600" height="400" viewBox="0 0 600 400" fill="none" xmlns="http://www.w3.org/2000/svg">
    <!-- Background - Earth post-invasion -->
    <rect width="600" height="400" fill="#0a0a0a"/>
    
    <!-- Sky with alien atmosphere -->
    <rect x="0" y="0" width="600" height="200" fill="url(#skyGradient)"/>
    
    <!-- Define gradients -->
    <defs>
        <linearGradient id="skyGradient" x1="0%" y1="0%" x2="0%" y2="100%">
            <stop offset="0%" style="stop-color:#1a0d1a;stop-opacity:1" />
            <stop offset="50%" style="stop-color:#0d1a0d;stop-opacity:1" />
            <stop offset="100%" style="stop-color:#0a0a0a;stop-opacity:1" />
        </linearGradient>
        <radialGradient id="alienGlow" cx="50%" cy="50%" r="50%">
            <stop offset="0%" style="stop-color:#00ff88;stop-opacity:0.8" />
            <stop offset="70%" style="stop-color:#003d1a;stop-opacity:0.4" />
            <stop offset="100%" style="stop-color:#000000;stop-opacity:0" />
        </radialGradient>
    </defs>
    
    <!-- Distant Earth horizon -->
    <ellipse cx="300" cy="350" rx="400" ry="100" fill="#1a1a2a"/>
    
    <!-- Alien structures in distance -->
    <path d="M50 300 Q100 250 150 300 Q200 280 250 300 L250 400 L50 400 Z" fill="#2a2a3a"/>
    <path d="M350 300 Q400 260 450 300 Q500 270 550 300 L550 400 L350 400 Z" fill="#2a2a3a"/>
    
    <!-- Xenomorph hive structures -->
    <ellipse cx="120" cy="320" rx="40" ry="60" fill="#1a2d1a"/>
    <ellipse cx="180" cy="340" rx="30" ry="45" fill="#1a2d1a"/>
    <ellipse cx="420" cy="330" rx="35" ry="50" fill="#1a2d1a"/>
    <ellipse cx="480" cy="350" rx="25" ry="40" fill="#1a2d1a"/>
    
    <!-- Organic growths -->
    <path d="M100 320 Q120 300 140 320 Q130 310 110 315 Z" fill="#003d1a"/>
    <path d="M400 330 Q420 310 440 330 Q430 320 410 325 Z" fill="#003d1a"/>
    <path d="M460 340 Q480 320 500 340 Q490 330 470 335 Z" fill="#003d1a"/>
    
    <!-- Central alien ship/structure -->
    <ellipse cx="300" cy="200" rx="80" ry="40" fill="#2a2a3a"/>
    <ellipse cx="300" cy="180" rx="60" ry="25" fill="#3a3a4a"/>
    <circle cx="300" cy="170" r="20" fill="#4a4a5a"/>
    
    <!-- Ship details -->
    <circle cx="290" cy="170" r="3" fill="#00ff88">
        <animate attributeName="opacity" values="1;0.3;1" dur="2s" repeatCount="indefinite"/>
    </circle>
    <circle cx="300" cy="165" r="4" fill="#00ff88">
        <animate attributeName="opacity" values="1;0.3;1" dur="2.2s" repeatCount="indefinite"/>
    </circle>
    <circle cx="310" cy="170" r="3" fill="#00ff88">
        <animate attributeName="opacity" values="1;0.3;1" dur="1.8s" repeatCount="indefinite"/>
    </circle>
    
    <!-- Energy beam from ship -->
    <path d="M300 200 Q290 250 280 300 Q290 320 300 340 Q310 320 320 300 Q310 250 300 200" 
          fill="url(#alienGlow)" opacity="0.6">
        <animate attributeName="opacity" values="0.6;0.9;0.6" dur="3s" repeatCount="indefinite"/>
    </path>
    
    <!-- Bioluminescent network connecting structures -->
    <path d="M120 320 Q200 280 300 300 Q400 280 480 320" 
          stroke="#00ff88" stroke-width="2" opacity="0.4" fill="none">
        <animate attributeName="opacity" values="0.4;0.8;0.4" dur="4s" repeatCount="indefinite"/>
    </path>
    <path d="M100 340 Q200 320 300 340 Q400 320 500 340" 
          stroke="#00ff88" stroke-width="1.5" opacity="0.3" fill="none">
        <animate attributeName="opacity" values="0.3;0.7;0.3" dur="5s" repeatCount="indefinite"/>
    </path>
    
    <!-- Floating Xenomorph silhouettes -->
    <ellipse cx="150" cy="120" rx="8" ry="25" fill="#1a1a1a" opacity="0.7">
        <animate attributeName="cy" values="120;100;120" dur="4s" repeatCount="indefinite"/>
    </ellipse>
    <ellipse cx="450" cy="140" rx="6" ry="20" fill="#1a1a1a" opacity="0.6">
        <animate attributeName="cy" values="140;120;140" dur="5s" repeatCount="indefinite"/>
    </ellipse>
    
    <!-- Head shapes for Xenomorphs -->
    <ellipse cx="150" cy="110" rx="6" ry="12" fill="#1a1a1a" opacity="0.7">
        <animate attributeName="cy" values="110;90;110" dur="4s" repeatCount="indefinite"/>
    </ellipse>
    <ellipse cx="450" cy="130" rx="4" ry="10" fill="#1a1a1a" opacity="0.6">
        <animate attributeName="cy" values="130;110;130" dur="5s" repeatCount="indefinite"/>
    </ellipse>
    
    <!-- Tail curves -->
    <path d="M158 135 Q180 150 190 170" stroke="#1a1a1a" stroke-width="3" opacity="0.7" fill="none">
        <animate attributeName="opacity" values="0.7;0.4;0.7" dur="4s" repeatCount="indefinite"/>
    </path>
    <path d="M456 155 Q470 165 480 180" stroke="#1a1a1a" stroke-width="2" opacity="0.6" fill="none">
        <animate attributeName="opacity" values="0.6;0.3;0.6" dur="5s" repeatCount="indefinite"/>
    </path>
    
    <!-- Atmospheric particles and spores -->
    <circle cx="80" cy="80" r="2" fill="#003d1a" opacity="0.5">
        <animate attributeName="cy" values="80;60;80" dur="3s" repeatCount="indefinite"/>
        <animate attributeName="opacity" values="0.5;0.2;0.5" dur="3s" repeatCount="indefinite"/>
    </circle>
    <circle cx="520" cy="100" r="1.5" fill="#003d1a" opacity="0.4">
        <animate attributeName="cy" values="100;80;100" dur="4s" repeatCount="indefinite"/>
        <animate attributeName="opacity" values="0.4;0.1;0.4" dur="4s" repeatCount="indefinite"/>
    </circle>
    <circle cx="200" cy="60" r="1" fill="#00ff88" opacity="0.6">
        <animate attributeName="cy" values="60;40;60" dur="5s" repeatCount="indefinite"/>
        <animate attributeName="opacity" values="0.6;0.2;0.6" dur="5s" repeatCount="indefinite"/>
    </circle>
    <circle cx="380" cy="90" r="1.2" fill="#00ff88" opacity="0.5">
        <animate attributeName="cy" values="90;70;90" dur="3.5s" repeatCount="indefinite"/>
        <animate attributeName="opacity" values="0.5;0.1;0.5" dur="3.5s" repeatCount="indefinite"/>
    </circle>
    
    <!-- Lightning/energy in sky -->
    <path d="M100 50 Q150 70 200 50 Q180 80 220 60" 
          stroke="#00ff88" stroke-width="1" opacity="0.3" fill="none">
        <animate attributeName="opacity" values="0.3;0.8;0.3" dur="2s" repeatCount="indefinite"/>
    </path>
    <path d="M400 40 Q450 60 500 40 Q480 70 520 50" 
          stroke="#00ddff" stroke-width="1" opacity="0.2" fill="none">
        <animate attributeName="opacity" values="0.2;0.7;0.2" dur="2.5s" repeatCount="indefinite"/>
    </path>
    
    <!-- Foreground destroyed landscape -->
    <path d="M0 350 Q100 330 200 350 Q300 330 400 350 Q500 330 600 350 L600 400 L0 400 Z" fill="#1a1a1a"/>
    
    <!-- Debris and ruins -->
    <rect x="50" y="360" width="15" height="40" fill="#2a2a2a" transform="rotate(15 57.5 380)"/>
    <rect x="150" y="370" width="20" height="30" fill="#2a2a2a" transform="rotate(-10 160 385)"/>
    <rect x="450" y="365" width="18" height="35" fill="#2a2a2a" transform="rotate(20 459 382.5)"/>
    <rect x="550" y="375" width="12" height="25" fill="#2a2a2a" transform="rotate(-15 556 387.5)"/>
    
    <!-- Overall apocalyptic atmosphere -->
    <rect x="0" y="0" width="600" height="400" fill="#003d1a" opacity="0.1">
        <animate attributeName="opacity" values="0.1;0.2;0.1" dur="6s" repeatCount="indefinite"/>
    </rect>
    
    <!-- Title space (transparent area for text overlay) -->
    <rect x="50" y="50" width="500" height="100" fill="none" stroke="none"/>
</svg>
