<svg width="1920" height="199" viewBox="0 0 1920 199" fill="none" xmlns="http://www.w3.org/2000/svg">
<g clip-path="url(#clip0_102_44)">
<path fill-rule="evenodd" clip-rule="evenodd" d="M1920 199.162V87.9102C1917.15 89.4645 1913.97 90.8609 1909.73 91.7502C1907.26 94.252 1904.32 96.5377 1902.1 99.1725C1898.99 101.234 1898.96 104.8 1894.46 106.196C1891.46 107.543 1890.53 105.357 1887.66 105.373C1885.9 104.143 1883.2 105.922 1880.03 105.373C1877.12 106.296 1876.54 108.357 1874.94 109.911C1873.95 111.632 1870.56 112.189 1868.16 113.219C1862.16 113.377 1859.1 112.114 1855.41 111.158C1850.48 111.507 1851.1 114.566 1846.08 114.873C1840.05 115.048 1838.03 113.278 1832.5 113.219C1825.46 113.643 1823.82 116.719 1817.22 117.35C1813.46 117.392 1814.58 115.048 1812.13 114.458C1808.46 113.901 1806.53 112.496 1801.09 112.804C1799.49 111.383 1796.18 110.801 1795.14 109.089C1792 109.205 1792.85 111.275 1789.2 111.158C1787.25 109.903 1785.73 108.432 1782.42 107.85C1779.74 107.659 1778.96 108.365 1778.18 109.089C1777.04 110.103 1775.01 108.631 1774.77 109.496C1769.57 108.739 1766 107.169 1760.34 106.612C1753.39 107.36 1748.72 109.205 1745.06 111.565C1740.46 111.25 1740.08 112.987 1737.42 113.627C1734.62 113.643 1733.2 114.325 1729.78 114.042C1725.89 114.217 1725.73 116.195 1723.01 116.935C1720.1 116.187 1718.93 116.993 1715.36 116.935C1707.34 116.021 1701.52 114.034 1694.14 112.804C1691.78 111.474 1689.52 110.103 1687.34 108.681C1685.66 107.152 1684.53 105.357 1680.54 104.958C1676.9 104.966 1674.02 105.357 1672.93 106.612C1669.58 105.672 1669.3 107.584 1666.13 107.85C1661.55 107.326 1660.02 105.315 1656.78 104.135C1652.05 103.752 1649.06 101.999 1645.74 102.073C1645.81 100.661 1643.25 100.528 1641.52 100.004C1635.26 92.1575 1629.63 84.0369 1622.83 76.465C1618.46 75.7003 1617.18 73.4312 1610.96 73.5725C1609.94 72.5502 1608.05 71.9601 1605.86 71.5112C1605.3 70.6468 1604.22 71.6276 1603.31 71.5112C1602.37 71.3866 1602.48 70.4473 1600.77 70.6801C1596.86 69.4084 1596.58 66.3913 1590.58 66.1419C1589.25 63.4822 1584.3 62.5845 1582.08 60.357C1578.37 59.9248 1579.3 61.7533 1576.13 61.6037C1575.17 59.5923 1570.37 59.451 1568.5 57.8801C1566.29 59.2764 1564.85 61.0552 1562.56 62.4266C1560.94 63.0832 1558.38 61.7034 1555.78 61.6037C1553.44 62.6759 1552.03 64.1804 1549.82 65.3191C1547.1 65.4105 1547.76 63.8396 1546.43 63.2495C1543.76 63.3326 1545.34 65.4687 1542.18 65.3191C1540.9 66.0671 1536.37 65.2359 1537.09 66.9648C1535.6 66.5907 1535.54 65.5185 1534.54 64.9035C1530 65.5767 1528.53 67.7544 1526.91 69.8572C1521.14 70.0733 1520.8 72.9408 1515.02 73.1569C1511.38 73.2816 1509.41 72.5835 1507.38 71.9268C1502.54 71.9351 1505.18 68.303 1500.61 68.2115C1494.93 67.9206 1494.86 70.3725 1492.1 71.5112C1491.78 72.5834 1489.57 72.7497 1489.55 73.9881C1486.88 73.7887 1486.08 74.4951 1485.33 75.2265C1482.42 75.8915 1482.75 75.1767 1481.07 74.4037C1477.95 74.6863 1476.85 76.1991 1475.14 76.0495C1472.98 77.13 1471.3 76.2822 1467.49 76.8806C1464.48 76.5481 1462.86 75.5424 1461.54 74.4037C1456.75 74.2707 1455.63 75.9248 1451.36 76.0495C1451.01 75.1352 1446.7 75.6588 1447.12 76.465C1444.94 76.4234 1445.76 74.9273 1444.58 74.4037C1442.58 74.5284 1441.38 75.052 1438.64 74.8193C1432.24 70.8962 1422.45 68.6437 1414.85 65.3191C1405.17 63.1497 1398.69 59.4094 1389.39 57.0572C1379.46 55.9767 1369.81 54.7466 1360.54 53.3419C1357.25 53.1175 1356.38 54.0733 1352.9 53.7492C1347.68 53.1258 1343.49 51.9954 1336.77 52.1035C1332.75 51.0229 1328.03 50.2998 1321.49 50.4495C1318.77 49.2858 1314.21 49.0282 1310.46 48.3882C1298.02 49.2941 1286.05 48.7123 1277.36 45.9029C1274.37 46.1024 1271.82 46.518 1268.02 46.3185C1263.92 46.385 1263.74 44.5398 1258.69 45.0801C1256.21 44.3487 1252.18 44.3819 1249.34 43.8417C1243.65 43.5508 1240.03 44.2655 1234.9 44.2572C1228.48 43.6588 1222.99 42.6115 1214.54 43.0105C1202.21 40.3341 1191.23 37.0094 1178.88 34.3414C1172.86 35.1975 1166.69 33.9342 1161.06 33.9342L1160.21 34.3414C1154.66 34.1668 1150.42 34.0339 1144.08 34.757C1138.18 34.3165 1134.67 32.7289 1129.65 31.8728C1123.58 31.3908 1121.47 32.8453 1116.06 32.6874C1107.66 31.956 1099.98 30.8837 1093.15 29.3876C1085.62 29.3876 1074.61 28.4816 1066.83 27.3263C1062.7 27.0687 1062.48 27.0687 1058.35 27.3263C1052.82 25.1985 1044.03 24.65 1037.14 23.1954C1033.78 21.9321 1030.46 20.6604 1026.94 19.4718C1023.9 19.7212 1022.83 18.9981 1020.99 18.6573C1017.28 18.6323 1013.98 18.8152 1011.66 19.4718C1007.3 18.7155 1004.88 16.9949 998.928 16.9949C991.2 16.9534 988.08 19.156 982.8 20.303C977.168 21.2754 969.632 21.3336 963.28 21.957C947.68 20.7019 930.736 22.6386 921.696 18.2417C910.096 18.7071 901.696 15.6734 893.68 15.7648C888.544 14.8173 885.6 12.8058 880.944 11.6339C871.616 10.3955 860.944 9.79696 854.624 7.08736C848.88 6.71333 843.552 6.14815 838.496 5.44166C821.936 5.20062 809.584 4.3279 792.672 5.02608C789.312 5.0427 787.728 5.93204 785.024 6.26451C782.224 6.24788 780.8 5.55802 777.376 5.84893C774.288 5.57464 774.128 6.73827 771.44 6.67178C754.448 6.66347 741.664 7.25361 729.008 7.50296C722.384 8.55855 717.904 10.6448 712.032 12.0495C706.768 10.1212 696.416 12.1658 691.648 11.6339C686.736 11.2682 684.88 9.41463 679.76 9.15697C676.976 7.9019 673.952 6.75489 668.72 6.67178C666.272 4.71022 661.664 3.78764 657.696 2.5492C648.992 3.07283 644.96 1.31075 639.024 0.47958C632.88 0.521139 629.424 1.86762 622.896 1.72632C618.592 1.74294 617.408 0.263483 613.552 0.0640026C608.112 -0.24353 604.928 0.554385 599.984 0.47958C594.624 1.80945 591.488 1.92582 585.536 2.5492C576.672 2.87335 567.728 1.24425 559.232 1.31074C553.632 1.3523 547.344 2.20842 542.256 2.95647C538.352 3.53829 534.128 4.26971 531.216 5.44166C525.584 4.63543 521.808 6.90451 518.48 5.84893C511.888 8.14295 501.344 8.52528 496.416 11.6339C494.8 12.4069 494.88 11.3929 492.176 11.6339C489.28 12.4318 486.992 13.5206 484.528 14.5264C477.28 15.1248 471.712 16.5544 466.704 18.2417C456.688 18.7321 446.784 19.2806 440.384 21.5414C435.376 20.5357 432.432 18.5326 425.968 18.2417C419.76 18.6656 414.4 19.4967 408.992 20.303C402.224 19.1892 398.88 16.4048 392.864 14.9336C385.536 14.6843 379.584 14.5513 373.344 14.9336C366.688 15.9643 362.56 18.2251 357.2 19.8874C352.336 21.7908 345.904 22.9212 340.24 24.4339C331.568 25.3066 319.088 24.3342 310.528 25.2651C306.064 24.542 301.952 23.6526 296.944 23.1954C284.624 25.3232 273.776 28.1658 263.84 31.4572C259.008 32.0474 254.624 33.2775 250.256 34.3414C238.288 37.2505 224.992 40.0515 212.912 43.4261C206.128 44.3985 198.352 44.8806 190.832 45.4957C183.152 47.2661 175.248 48.9201 168.768 51.2723C162.768 50.9731 159.92 52.2032 154.336 52.1035C150.288 51.8707 146.16 51.6712 143.296 50.865C139.104 51.9206 132.688 50.9066 128.016 50.865C122.192 48.6042 114.016 47.4822 105.952 46.3185C93.5045 46.4598 86.6085 49.2941 76.2405 50.4495C72.7845 51.3804 68.6885 52.0037 66.0485 53.3419C62.1605 53.5082 59.5845 54.3227 55.8725 54.5804C48.5925 56.4089 42.1925 58.653 37.2005 61.6037C26.3685 63.7647 17.2805 66.7819 4.08049 67.7959L0.000488281 67.6047V199.162H1920Z" fill="#598F67"/>
</g>
<defs>
<clipPath id="clip0_102_44">
<rect width="1920" height="199" fill="white"/>
</clipPath>
</defs>
</svg>
