<svg width="1920" height="216" viewBox="0 0 1920 216" fill="none" xmlns="http://www.w3.org/2000/svg">
<g clip-path="url(#clip0_102_46)">
<path fill-rule="evenodd" clip-rule="evenodd" d="M1920 216V56.1859L1917.74 55.4988C1916.18 55.3921 1915.7 55.759 1915.25 56.1392L1913.25 56.3459C1910.18 55.9457 1908.06 55.1453 1904.72 54.8585C1900.62 55.2454 1897.86 56.1925 1895.7 57.4065C1892.99 57.2531 1892.75 58.1402 1891.18 58.467C1889.55 58.4803 1888.7 58.8272 1886.69 58.6871C1884.38 58.7738 1884.29 59.7943 1882.67 60.1679C1880.96 59.7877 1880.27 60.2012 1878.16 60.1679C1873.42 59.701 1869.98 58.6804 1865.63 58.0468C1864.26 57.3598 1862.91 56.6594 1861.63 55.919C1860.64 55.132 1859.97 54.2182 1857.62 54.0048C1855.46 54.0114 1853.74 54.2182 1853.09 54.8585C1851.12 54.3783 1850.96 55.3588 1849.09 55.4988C1846.38 55.2254 1845.49 54.1982 1843.58 53.5845C1840.78 53.3911 1839.01 52.4907 1837.06 52.524C1837.09 51.797 1835.6 51.7369 1834.56 51.4635C1830.88 47.4214 1827.54 43.246 1823.54 39.344C1820.96 38.9571 1820.19 37.7899 1816.51 37.8566L1813.5 36.796H1812L1810.5 36.3758C1808.21 35.7155 1808.03 34.1614 1804.48 34.0347C1803.7 32.6673 1800.78 32.207 1799.47 31.0598C1797.28 30.8397 1797.82 31.7735 1795.97 31.7001C1795.39 30.6663 1792.56 30.5929 1791.46 29.7858C1790.14 30.5062 1789.3 31.42 1787.95 32.1203C1787.01 32.4605 1785.49 31.7535 1783.94 31.7001L1780.42 33.6144C1778.82 33.6611 1779.2 32.8474 1778.42 32.5472C1776.85 32.5806 1777.78 33.6878 1775.92 33.6144C1775.15 33.9946 1772.48 33.5677 1772.91 34.4615L1771.41 33.3943C1768.72 33.7412 1767.84 34.8617 1766.9 35.9423C1763.49 36.0623 1763.28 37.5364 1759.87 37.6431C1757.73 37.7098 1756.56 37.3497 1755.38 37.0095C1752.51 37.0162 1754.08 35.1485 1751.36 35.0952C1748.02 34.9551 1747.97 36.2091 1746.34 36.796C1746.16 37.3497 1744.86 37.4364 1744.85 38.0767C1743.26 37.97 1742.8 38.3368 1742.34 38.7103C1740.62 39.0572 1740.83 38.6837 1739.82 38.2835C1737.98 38.4302 1737.34 39.2106 1736.34 39.1372C1735.04 39.6908 1734.05 39.2506 1731.81 39.5574C1730.03 39.3907 1729.09 38.8771 1728.3 38.2835C1725.49 38.2168 1724.82 39.0705 1722.3 39.1372L1719.78 39.344L1718.29 38.2835C1717.1 38.3568 1716.4 38.6236 1714.77 38.4969C1711.01 36.4759 1705.22 35.3286 1700.74 33.6144C1695.01 32.4939 1691.2 30.5729 1685.7 29.359C1679.84 28.8053 1674.14 28.1717 1668.66 27.4513C1666.72 27.3312 1666.22 27.8315 1664.16 27.6581C1661.07 27.3313 1658.59 26.751 1654.62 26.811C1652.27 26.2574 1649.47 25.8839 1645.62 25.9572C1644.02 25.3636 1641.31 25.2302 1639.09 24.8967C1631.73 25.3636 1624.69 25.0634 1619.55 23.6227C1617.78 23.7228 1616.29 23.9429 1614.03 23.8361C1611.62 23.8695 1611.52 22.9224 1608.51 23.1958C1607.06 22.8223 1604.69 22.8357 1603.01 22.5555C1599.65 22.4088 1597.5 22.7823 1594.48 22.7756C1590.69 22.4688 1587.44 21.9352 1582.45 22.1353C1575.18 20.7546 1568.69 19.0404 1561.39 17.673C1557.86 18.1133 1554.19 17.4596 1550.88 17.4596L1550.37 17.673C1547.1 17.5796 1544.61 17.5196 1540.85 17.8798C1537.36 17.6597 1535.3 16.846 1532.34 16.3991C1528.74 16.1589 1527.5 16.8993 1524.32 16.8193C1519.36 16.4458 1514.8 15.8921 1510.78 15.1184C1506.34 15.1184 1499.84 14.6582 1495.25 14.0579C1492.8 13.9311 1492.67 13.9311 1490.24 14.0579C1486.96 12.964 1481.79 12.6838 1477.71 11.9368C1475.73 11.2831 1473.76 10.6295 1471.7 10.0225C1469.89 10.1492 1469.26 9.77571 1468.18 9.59562C1465.98 9.58228 1464.03 9.68232 1462.67 10.0225C1460.08 9.62896 1458.67 8.74186 1455.15 8.74853C1450.59 8.72185 1448.74 9.85574 1445.63 10.4494C1442.3 10.9496 1437.86 10.9763 1434.1 11.2965C1424.88 10.6495 1414.88 11.65 1409.54 9.38883C1402.69 9.62228 1397.74 8.06818 1393.01 8.1082C1389.98 7.62129 1388.24 6.58743 1385.47 5.98712C1379.98 5.3468 1373.68 5.04666 1369.95 3.65262C1366.56 3.45252 1363.41 3.15902 1360.43 2.79884C1350.66 2.67211 1343.36 2.2319 1333.36 2.58542C1331.38 2.59209 1330.46 3.05897 1328.85 3.22572C1327.2 3.21238 1326.35 2.85888 1324.34 3.01229C1322.51 2.87222 1322.42 3.46585 1320.83 3.4325C1310.8 3.42583 1303.26 3.73265 1295.78 3.85938C1291.87 4.39965 1289.23 5.47352 1285.74 6.19388C1282.66 5.20672 1276.54 6.2606 1273.73 5.98712C1270.82 5.80036 1269.73 4.84656 1266.69 4.71316C1265.06 4.06617 1263.28 3.47252 1260.19 3.4325C1258.74 2.41866 1256.02 1.95175 1253.66 1.31142C1248.54 1.57823 1246.14 0.671098 1242.66 0.250886C1239.02 0.270896 1236.98 0.957918 1233.12 0.884548C1230.59 0.897888 1229.89 0.130841 1227.62 0.03746C1224.4 -0.122621 1222.53 0.284236 1219.58 0.250886C1216.43 0.93123 1214.58 0.991263 1211.07 1.31142C1205.84 1.47818 1200.56 0.637746 1195.54 0.671096C1192.22 0.691107 1188.51 1.13801 1185.5 1.52488C1183.22 1.81836 1180.7 2.19854 1178.99 2.79884C1175.66 2.3853 1173.42 3.55257 1171.47 3.01229C1167.58 4.19289 1161.36 4.38631 1158.45 5.98712C1157.49 6.38733 1157.54 5.86039 1155.95 5.98712C1154.22 6.394 1152.88 6.95428 1151.42 7.47454C1147.15 7.78136 1143.87 8.51506 1140.9 9.38883C1134.99 9.6423 1129.14 9.92244 1125.36 11.0897C1122.42 10.5694 1120.67 9.53557 1116.85 9.38883C1113.18 9.60227 1110.03 10.0358 1106.82 10.4494C1102.83 9.87575 1100.85 8.44171 1097.31 7.68799C1092.98 7.55459 1089.46 7.48789 1085.78 7.68799C1081.86 8.21492 1079.41 9.38218 1076.26 10.2359C1073.36 11.2098 1069.57 11.7967 1066.22 12.5705C1061.12 13.024 1053.74 12.5238 1048.69 12.9973C1046.05 12.6238 1043.62 12.1702 1040.67 11.9368C1033.39 13.0307 1026.99 14.4981 1021.12 16.1856C1018.27 16.4924 1015.68 17.1261 1013.1 17.673C1006.03 19.1738 998.176 20.6145 991.056 22.3487C987.056 22.849 982.464 23.0958 978.032 23.4093C973.488 24.3231 968.816 25.1768 964.992 26.3841C961.456 26.2307 959.76 26.8644 956.464 26.811C954.08 26.6909 951.648 26.5909 949.952 26.1707C947.472 26.7176 943.696 26.1907 940.928 26.1707C937.488 25.0168 932.672 24.4364 927.904 23.8361C920.56 23.9095 916.48 25.3636 910.352 25.9572C908.32 26.4441 905.904 26.7576 904.352 27.4513C902.032 27.538 900.528 27.9516 898.336 28.085C894.032 29.0254 890.256 30.186 887.312 31.7001C880.912 32.814 875.552 34.3615 867.76 34.8817C863.488 34.7884 860.064 34.3215 855.232 34.4615C850.512 34.8684 846.848 35.7288 842.192 36.1624C839.824 36.716 837.36 37.2296 835.184 37.8566C826.096 38.8971 818 40.3445 811.632 42.5389C807.584 43.226 805.312 44.6734 802.096 45.7206C798.608 46.6477 796.24 48.0551 793.072 49.1223C787.296 49.2223 784.416 50.5497 780.048 51.2433C777.008 51.3034 773.152 51.0166 771.536 51.6702C769.184 51.8903 769.872 50.8231 767.52 51.0366C761.696 51.5368 755.984 52.0904 751.984 53.3711C749.52 53.4578 747.312 53.6579 744.976 53.798C742.528 53.5045 743.344 52.3973 739.952 52.9442C738.464 51.7369 736.304 50.8165 733.44 50.1828C732.912 48.642 730.832 47.7483 728.928 46.7811C727.152 47.0212 724.8 47.0145 722.912 47.2146C720.688 47.2346 721.36 46.0274 719.904 45.7206C719.28 45.0669 718.256 44.58 716.896 44.2331C715.328 43.6795 714.416 44.7534 711.888 44.4466C709.168 43.8329 707.2 42.8925 704.864 42.1054C702.064 42.1988 701.36 43.1659 698.864 43.386L695.856 43.1726C694.208 43.5395 692.08 44.5933 689.84 44.0197C688.24 44.4132 687.584 45.1936 686.832 45.934C682.848 46.0207 680.496 46.7944 678.304 47.6349C676.048 47.5348 674.56 47.7416 672.8 47.8483C668.288 48.9155 665.936 50.8898 660.768 51.6702C657.712 51.6169 655.472 51.2167 652.752 51.0366C650.832 51.3567 649.472 51.917 648.24 52.524C646.048 52.0304 645.6 50.8098 641.712 51.0366C638.768 50.7698 639.184 51.9437 637.712 52.3039C635.408 52.1705 634.768 50.8565 632.192 51.4635C632.016 50.6831 631.024 50.2562 629.696 49.976C626.864 49.4358 626.208 50.2695 623.68 50.3963C623.36 49.6892 622.112 49.3557 621.68 48.6954C621.248 48.1418 619.472 49.1089 618.672 48.4819C617.04 46.621 613.68 45.5004 612.144 43.5995C608.048 43.9863 607.744 45.974 605.136 47.0012C602.32 47.1279 601.072 46.5943 600.128 45.934C598.32 45.8806 597.712 46.3275 596.112 46.3609C595.664 45.4938 593.744 45.2403 593.616 44.2331C591.216 44.8468 588.256 45.227 586.08 45.934C584.064 45.1603 581.136 44.7801 579.568 43.8062L577.072 42.5389L574.064 41.4717C572.464 41.1449 571.52 41.6252 570.56 42.1054C568.176 41.4517 566.736 39.8709 562.528 40.6246C561.296 39.5174 559.184 38.7837 558.528 37.4364C556.544 37.463 556.992 38.3635 555.024 37.8566C554.848 36.796 552.128 36.816 552.016 35.7355C550.896 35.1485 550.048 34.4415 549.504 33.6144C547.616 32.2871 546 30.8464 544.992 29.1522C541.728 28.9654 539.792 29.3523 537.472 29.5724C534.128 28.6586 532.176 27.1445 530.464 25.537C526.656 25.0901 524.496 23.9496 522.944 22.5555C519.072 22.5622 517.408 21.6484 514.928 21.0748H508.4C505.792 20.1943 504.048 18.947 501.888 17.8798C500.32 17.9865 500.56 17.3128 499.376 17.2528C497.808 17.3462 497.344 16.986 496.88 16.6125L492.368 15.3319L491.36 14.6982C490.48 13.3775 489.168 12.2303 488.352 10.8763C486.928 9.99583 485.776 8.98864 483.344 8.53508C478.928 8.78854 477.568 10.3293 473.328 10.6562L469.808 9.59562C468.592 9.12872 467.104 8.76186 465.312 8.53508C462.464 9.03533 462.656 10.8096 460.784 11.7167C459.36 11.1297 458.688 10.2093 457.28 9.59562H453.28L448.768 10.2359C447.504 10.4827 447.088 11.083 445.264 11.0897C444.272 10.3026 443.616 9.36883 442.752 8.53508C442.464 7.45453 440.464 7.10103 438.736 6.62745C435.488 6.73417 435.152 8.08153 433.232 8.74853C428.512 7.34782 426.304 4.88657 421.696 3.4325C416.336 4.49304 414.464 7.02765 410.176 8.53508C408.016 8.33498 406.064 7.05434 403.152 7.26112C401.248 7.39452 400.816 7.68131 399.648 8.53508L396.144 9.59562C392.528 9.49557 389.984 8.94862 387.12 8.53508L384.112 8.95529C382.912 9.02866 381.68 8.03484 380.608 8.74853C378.928 7.48122 376.768 6.40734 374.08 5.56025C372.816 6.65413 371.424 7.69465 370.576 8.95529C367.936 9.7557 365.28 10.5428 362.56 11.2965C360.416 10.5828 360.176 9.04868 358.544 8.1082C354.688 8.88193 354.752 11.3165 350.032 11.7167C348.08 11.7034 348.192 10.8029 348.032 10.0225L346.528 8.32163C346.032 7.66796 345.184 8.56843 344.512 8.53508L343.024 7.68799C342.128 7.13438 339.52 7.32114 338 7.04766C335.472 9.09537 333.232 11.2565 331.488 13.6377C329.568 13.671 330.4 12.5371 328.48 12.5705C321.456 13.5643 318.576 16.3057 314.448 18.5201H312.432L311.44 18.3134C309.408 18.867 307.216 19.3539 306.928 20.6479C305.296 20.5278 304.592 20.7946 303.424 20.8613C302.576 22.3421 300.784 23.4226 299.408 24.6833C299.088 25.4703 298 25.9239 297.408 26.5975C296.288 27.0444 296.144 27.8982 294.4 28.085C292.752 28.6319 292.368 27.2179 291.888 26.5975C288.176 27.0044 286.384 26.5308 283.872 25.9572C282.08 24.7366 280.512 23.4159 278.352 22.3487C276.048 22.2754 275.472 22.0819 273.36 22.3487C272.4 21.1881 268.08 21.4616 265.824 20.8613C263.68 21.0614 261.104 20.7479 257.808 20.8613C254.912 20.7413 255.696 19.0671 252.8 18.947C247.36 18.8336 245.856 20.3944 240.768 20.4344C238.448 20.9347 236.512 21.6017 235.264 22.5555C231.184 22.6022 230.272 23.9829 227.248 24.4765C224.864 24.3898 223.792 24.85 221.232 24.6833L217.216 26.3841C216.352 27.0778 214.576 27.3913 213.696 28.085C209.696 28.6586 206.304 29.4857 202.176 29.9993C200.336 30.206 199.776 30.9597 198.672 31.48C197.12 31.8202 195.712 32.2204 194.672 32.7607C192.912 32.9541 191.936 33.6144 190.656 34.0347L186.64 35.3153C179.648 36.3091 172.384 37.1962 166.592 38.7103C162.352 38.7504 158.448 38.9438 155.568 39.5574L152.064 38.9238C147.008 40.011 140.224 41.5051 133.008 40.4045C129.76 40.4445 129.808 41.8786 127.504 42.3188C119.856 43.1726 109.888 43.2927 102.944 41.8986C100.32 42.052 99.632 43.0459 95.936 42.7457C92.96 42.659 90.896 42.1921 89.408 41.4717C85.936 41.9186 83.376 40.8114 79.888 40.6246C77.008 40.0644 75.408 38.9771 73.376 38.0767C69.824 37.6632 66.896 36.9962 63.344 36.5826C62.16 35.7422 60.32 35.1752 59.344 34.2414C58.048 33.521 56.096 33.0742 55.328 32.1203C51.408 32.6539 50.208 34.3415 43.808 33.8212C42.672 31.5334 41.008 29.479 39.792 27.2379C38.608 26.8177 36.64 26.731 34.784 26.5975C32.56 25.4903 30.128 24.4631 25.76 24.2564C23.856 24.3764 23.36 25.0835 22.752 25.7505C19.728 27.2312 17.952 29.2389 14.24 30.4195C12.176 30.3661 11.6 29.6991 9.728 29.5724C7.648 29.8058 6.848 29.7258 5.712 29.1522C3.984 29.4056 2.688 29.8458 1.696 30.4195L0 30.6663V216H1920Z" fill="#367045"/>
</g>
<defs>
<clipPath id="clip0_102_46">
<rect width="1920" height="216" fill="white"/>
</clipPath>
</defs>
</svg>
