<svg width="354" height="56" viewBox="0 0 354 56" fill="none" xmlns="http://www.w3.org/2000/svg">
<g clip-path="url(#clip0_102_2)">
<path d="M350.65 42.8453C350.699 42.8846 350.747 42.9238 350.795 42.9631V53.5629C350.464 53.522 350.116 53.4711 349.768 53.4203C349.285 53.3496 348.803 53.279 348.365 53.2352C347.125 53.1109 347.167 53.3929 347.215 53.7175C347.248 53.9469 347.285 54.1976 346.875 54.3411C345.345 54.8765 341.297 55.2542 337.288 55.1851C335.588 55.1558 334.226 55.0198 332.858 54.8832C331.822 54.7797 330.783 54.6759 329.589 54.6176C327.885 54.5344 326.23 54.6137 324.58 54.6927C323.733 54.7333 322.888 54.7738 322.039 54.7922C319.443 54.8485 316.653 54.7322 313.884 54.6167C311.965 54.5367 310.056 54.4571 308.229 54.4357C306.166 54.4115 303.824 54.3243 301.414 54.2345C296.248 54.042 290.764 53.8376 287.019 54.2174C282.739 54.6514 279.38 54.9919 274.551 55.2724C273.771 55.3177 273.017 55.416 272.245 55.5165C271.053 55.6717 269.821 55.8323 268.391 55.8108C266.439 55.7815 265.246 55.4633 264.175 55.1776C263.655 55.0389 263.164 54.908 262.629 54.8213C261.874 54.6991 259.763 54.8854 257.625 55.074C255.95 55.2217 254.259 55.3709 253.191 55.3743C248.815 55.3882 244.361 55.2399 239.91 55.0918C236.407 54.9752 232.906 54.8586 229.447 54.8213C222.802 54.7497 218.097 54.9077 212.211 55.3161C209.185 55.526 206.361 55.5026 203.319 55.3161C202.363 55.2575 201.396 55.1867 200.414 55.1149C197.371 54.8924 194.192 54.6599 190.801 54.7486C188.414 54.811 186.387 55.0034 184.365 55.1953C182.971 55.3276 181.579 55.4597 180.072 55.5489C173.818 55.9192 167.335 55.1674 162.935 54.6176C161.184 54.3989 159.698 54.1317 158.211 53.8642C155.303 53.3414 152.39 52.8175 147.486 52.6531C139.001 52.3686 126.253 53.0566 119.967 53.9046C117.91 54.1821 115.823 54.1945 113.638 54.2074C111.943 54.2175 110.188 54.2279 108.344 54.3629C106.046 54.5312 104.239 54.5644 101.687 54.4721C99.223 54.3829 97.253 54.4162 95.2703 54.4497C93.7509 54.4754 92.224 54.5012 90.4614 54.4721C86.721 54.4103 83.9256 54.19 81.2449 53.9787C77.2471 53.6636 73.5045 53.3687 67.2639 53.6499C64.7435 53.7635 62.3819 53.9212 60.0194 54.0789C58.2992 54.1938 56.5786 54.3087 54.7959 54.4066C52.9215 54.5096 51.2038 54.443 49.424 54.374C48.6651 54.3446 47.895 54.3148 47.0965 54.2975C45.2454 54.2573 43.2677 54.1486 41.2771 54.0392C38.5943 53.8918 35.888 53.7431 33.4363 53.759C31.7018 53.7703 30.6036 53.9475 29.4514 54.1334C28.2321 54.3301 26.9521 54.5365 24.7932 54.5667C22.9377 54.5925 21.0642 54.8051 19.2651 55.0092C18.2293 55.1267 17.2182 55.2414 16.2493 55.3161C13.8219 55.5032 3.7804 56 1.04932 56C1.04932 55.1939 2.65644 54.3322 4.21273 53.4977C4.99703 53.0772 5.76841 52.6636 6.3147 52.2675C7.38678 51.4902 7.10767 50.8431 6.7935 50.1146C6.73121 49.9702 6.66753 49.8225 6.61274 49.67C6.47352 49.2826 7.92437 49.049 9.45202 48.8031C10.6617 48.6083 11.9196 48.4058 12.4742 48.113C14.0417 47.2854 3.61242 46.4473 3.4669 45.6057C3.42442 45.3601 3.38189 45.1141 3.38189 44.868C3.38189 44.4525 4.59925 44.3199 5.89568 44.1787C7.05274 44.0528 8.27279 43.9199 8.74662 43.5729C9.69453 42.8787 9.20638 42.1632 8.71926 41.4493C8.18132 40.6608 4.21649 39.8742 5.61651 39.1201C5.94554 38.9429 6.64956 38.8296 7.36805 38.7139C7.83828 38.6382 8.3147 38.5615 8.69625 38.4653C10.0942 38.1126 10.1384 37.6425 10.1763 37.2401C10.1795 37.2066 10.1826 37.1735 10.1864 37.1411C10.3373 35.8666 11.8939 35.0268 11.2535 33.3288C10.6132 31.6309 9.57629 32.7387 7.85181 31.4441C6.23985 30.2341 5.00916 29.0349 5.26879 27.799C5.32373 27.5374 5.34573 27.2682 5.36807 26.9948C5.47804 25.6493 -1.25999 24.2022 2.83341 23.0697C5.54917 22.3183 5.52705 21.3324 5.50744 20.4584C5.50368 20.2907 5.50001 20.1272 5.51577 19.9702C5.581 19.3205 6.30838 18.8689 7.15533 18.343C7.36586 18.2123 7.58378 18.077 7.80075 17.9329C8.50941 17.4624 8.05195 16.9632 7.59244 16.4617C6.95772 15.7691 6.31908 15.0721 8.74454 14.4406C9.98355 14.1179 10.4571 13.7521 10.9283 13.3882C11.1747 13.1979 11.4204 13.0081 11.7746 12.8253C12.3439 12.5315 13.295 12.278 14.258 12.0213C1.70318 11.7127 9.73429 11.3996 10.283 11.0064C10.9843 10.5039 4.67135 9.99691 5.21468 9.48996C5.23772 9.46846 5.24717 9.44696 5.24426 9.42546C6.371 9.51366 7.30667 9.53634 7.54961 9.44935C3.32813 8.50597 7.20505 7.32157 7.63356 6.19062C7.84939 5.62098 8.06009 5.06491 8.54239 4.56001C9.17799 3.89462 3.15038 3.2107 4.0704 2.55188C4.26932 2.40944 25.0229 2.24506 25.2204 2.06926C22.5278 1.41463 47.4384 0.601562 49.9272 0.172696C50.6879 0.0416217 51.3413 0.158293 52.0231 0.280018C52.8439 0.426553 53.7057 0.580413 54.8449 0.318209C58.8515 -0.604013 67.5786 1.63036 68.1083 2.17354C68.3052 2.37537 70.3052 1.60397 70.7214 1.44343L70.7907 1.41685C72.5777 0.755229 74.664 0.377708 79.0365 0.922099C79.6499 0.998467 80.4315 1.13336 81.3131 1.28553C83.5746 1.67585 86.4944 2.17978 88.9215 2.10078C89.3596 2.08652 89.7994 2.00473 90.2354 1.92364C90.7494 1.82805 91.2582 1.73343 91.7529 1.75154C93.4416 1.81338 94.9777 2.37665 95.8032 2.67937C95.9762 2.74282 96.118 2.79482 96.2235 2.82836L96.6066 2.95043C100.183 4.09092 102.042 4.68359 110.827 5.02566C117.002 5.26609 120.053 3.91632 122.405 2.87515C123.902 2.21292 125.116 1.67553 126.673 1.75154C127.149 1.77479 127.428 1.84008 127.668 1.89652C128.07 1.99084 128.367 2.06046 129.306 1.86796C129.508 1.82656 129.797 1.74018 130.148 1.63502C131.23 1.31178 132.905 0.811014 134.472 0.892998C136.961 1.0232 138.004 1.70743 138.559 2.07128C138.607 2.10318 138.652 2.13261 138.694 2.15899C139.698 2.79311 140.447 3.43392 141.196 4.07513C142.008 4.77009 142.821 1.4725 143.959 2.16039C144.075 2.23013 144.171 2.29534 144.259 2.35517C144.569 2.56608 144.781 2.71007 145.4 2.74973C147.043 2.855 147.894 3.64941 148.525 4.23718C148.801 4.49524 149.035 4.71347 149.275 4.81606C150.825 5.4803 151.195 5.47199 153.248 4.85971C154.149 4.59116 154.905 4.26079 155.683 3.92049C157.012 3.33982 158.406 2.73024 160.699 2.34956C161.55 2.20832 163.571 2.17497 165.571 2.14196C167.128 2.11628 168.671 6.08383 169.641 6.00789C171.197 5.88594 172.631 2.72503 174.069 2.55849C176.301 2.29985 178.543 2.04022 181.264 1.94358C184.059 1.84436 186.738 1.66045 189.404 1.47753C193.86 1.17172 198.276 0.868674 203.12 0.968622C203.935 0.98543 205.032 0.992777 206.253 1.00095C209.863 1.02514 214.557 1.05657 216.234 1.36152C217.796 1.64551 219.04 2.02991 220.312 2.42311C222.348 3.05221 224.456 3.70381 228.057 4.00264C231.296 4.27154 234.324 3.2229 235.11 2.94765C235.386 2.85085 235.634 2.75958 235.864 2.67439C237.67 2.00695 238.467 1.71255 244.449 2.05999C252.906 2.55122 260.359 2.50525 269.285 2.35103C271.882 2.30616 274.624 2.28974 277.403 2.27308C283.421 2.23702 289.618 2.19989 294.917 1.87082C297.578 1.70553 299.755 1.33446 301.917 0.96601C305.689 0.323189 309.413 -0.311649 315.581 0.168286C320.609 0.559536 336.269 1.49626 337.95 2.30513C338.346 2.49533 338.726 2.67847 339.129 2.84578C344.472 5.06635 349.194 10.4417 347.066 12.8139C345.677 14.3624 344.292 15.9074 344.992 17.4018C345.22 17.8896 345.56 18.3508 347.277 18.7624C348.976 19.1697 349.435 19.7582 349.864 20.3088C350.082 20.5889 340.008 20.8591 340.37 21.0907C340.552 21.207 340.746 21.3201 340.937 21.4318C341.51 21.7664 345.489 22.0881 345.636 22.444C345.645 22.4655 345.654 22.4922 345.665 22.5229C345.802 22.9137 346.167 23.9586 348.766 23.2879C354.098 21.9119 348.84 23.5557 349.737 24.4775C350.052 24.801 350.28 25.0356 350.552 25.0196C351.203 24.9815 351.619 26.037 351.981 26.9549C352.207 27.5278 352.411 28.0471 352.639 28.2137C354.122 29.2998 354.043 30.4176 353.965 31.5263C353.948 31.7735 347.074 32.0204 347.074 32.2663C347.074 32.2928 347.075 32.3193 347.076 32.3458C347.086 32.6298 347.096 32.9066 345.931 33.1539C344.958 33.3607 344.037 33.53 343.212 33.6816C340.16 34.2428 345.282 34.5615 347.075 35.6423C347.707 36.0229 348.595 36.3922 349.483 36.7614C350.498 37.1834 351.512 37.6052 352.142 38.0433C352.38 38.2087 345.852 38.3923 346.197 38.585C347.215 39.1534 348.375 39.8017 347.769 40.2988C347.488 40.5292 347.996 40.7544 348.514 40.9839C348.633 41.0366 348.752 41.0895 348.862 41.1428C349.563 41.4809 349.813 41.8316 350.063 42.1827C350.221 42.4044 350.379 42.6263 350.65 42.8453Z" fill="#3B683B"/>
</g>
<defs>
<clipPath id="clip0_102_2">
<rect width="354" height="56" fill="white"/>
</clipPath>
</defs>
</svg>
